<svg width="554" height="554" viewBox="0 0 554 554" fill="none" xmlns="http://www.w3.org/2000/svg">
<circle cx="277" cy="277" r="277" fill="#A01B1B"/>
<path d="M155.486 405V390.847C166.615 390.363 174.84 389.395 180.163 387.944C185.727 386.25 189.357 383.347 191.05 379.234C192.986 374.879 193.953 368.347 193.953 359.637V193.427C193.953 184.718 192.986 178.306 191.05 174.194C189.357 169.839 185.727 166.815 180.163 165.121C174.84 163.427 166.615 162.46 155.486 162.218V148.065C159.84 148.306 167.098 148.548 177.26 148.79C187.663 148.79 200.244 148.79 215.002 148.79C223.469 148.79 230.969 148.79 237.502 148.79C244.034 148.79 249.84 148.79 254.921 148.79C260.244 148.548 264.961 148.427 269.074 148.427C273.429 148.185 277.179 148.065 280.324 148.065C313.953 148.065 339.357 153.508 356.534 164.395C373.711 175.282 382.3 191.25 382.3 212.298C382.3 226.815 377.945 239.274 369.236 249.677C360.526 260.081 347.945 268.065 331.494 273.629C315.284 279.194 295.445 281.976 271.977 281.976H224.437V272.54H272.34C291.211 272.54 305.244 267.944 314.437 258.75C323.631 249.315 328.227 235.04 328.227 215.927C328.227 197.782 323.873 184.355 315.163 175.645C306.695 166.694 293.51 162.218 275.607 162.218H249.115V359.637C249.115 368.105 249.961 374.516 251.655 378.871C253.59 383.226 257.34 386.25 262.905 387.944C268.469 389.395 276.695 390.363 287.582 390.847V405C275.486 404.274 253.59 403.911 221.897 403.911C189.719 403.911 167.582 404.274 155.486 405ZM375.042 410.081C359.558 410.081 347.824 406.573 339.84 399.556C332.098 392.298 326.534 380.202 323.147 363.266L315.526 324.798C313.348 314.879 310.566 307.258 307.179 301.935C304.034 296.371 299.679 292.379 294.115 289.96C288.792 287.54 281.534 286.331 272.34 286.331H226.977V276.895H269.074C292.542 276.895 311.292 278.71 325.324 282.339C339.357 285.968 350.123 292.137 357.623 300.847C365.123 309.556 370.808 321.774 374.679 337.5L380.123 360.363C382.3 369.556 384.961 376.089 388.107 379.96C391.252 383.831 395.486 385.645 400.808 385.403C403.711 385.403 406.252 384.919 408.429 383.952C410.848 382.742 413.268 380.927 415.687 378.508L422.582 389.032C416.292 396.29 409.397 401.613 401.897 405C394.397 408.387 385.445 410.081 375.042 410.081Z" fill="white"/>
</svg>
